<?xml version="1.0" encoding="utf-8"?>
<!-- Generator: Adobe Illustrator 19.2.1, SVG Export Plug-In . SVG Version: 6.00 Build 0)  -->
<svg version="1.1" id="Layer_1" xmlns="http://www.w3.org/2000/svg" xmlns:xlink="http://www.w3.org/1999/xlink" x="0px" y="0px"
	 viewBox="0 0 160 160" style="enable-background:new 0 0 160 160;" xml:space="preserve">
<style type="text/css">
	.st0{fill:none;}
	.st1{enable-background:new    ;}
	.st2{fill:#FFFFFF;}
	.st3{fill:#1D9E98;}
	.st4{fill:none;stroke:#FFFFFF;stroke-miterlimit:10;}
</style>
<g>
	<rect x="35" y="72.3" class="st0" width="143.4" height="50"/>
	<g class="st1">
		<path class="st2" d="M40.9,75.9h-4.5v-2.3h11.4v2.3h-4.5v13h-2.4V75.9z"/>
		<path class="st2" d="M54,75.8v4.4h6.7v2H54v4.5h7.2v2.2h-9.5V73.6h9.5v2.2H54z"/>
		<path class="st2" d="M68.6,88.2c-1.1-0.7-2-1.6-2.5-2.8c-0.6-1.2-0.9-2.6-0.9-4.2c0-1.6,0.3-3,0.9-4.2c0.6-1.2,1.4-2.1,2.6-2.8
			s2.5-1,4.1-1c0.8,0,1.5,0.1,2.2,0.3c0.7,0.2,1.4,0.4,2,0.8v2.4h-0.1c-0.5-0.4-1.1-0.7-1.8-0.9s-1.4-0.4-2.1-0.4
			c-1.7,0-2.9,0.5-3.8,1.5s-1.3,2.4-1.3,4.3c0,1.8,0.4,3.2,1.3,4.3c0.9,1,2.1,1.5,3.8,1.5c0.7,0,1.5-0.1,2.2-0.4
			c0.7-0.2,1.3-0.6,1.9-1h0.1v2.4c-1.2,0.7-2.6,1.1-4.3,1.1C71,89.2,69.7,88.9,68.6,88.2z"/>
		<path class="st2" d="M94.1,73.6v15.3h-2.4V82h-7.8v6.9h-2.4V73.6h2.4v6.2h7.8v-6.2H94.1z"/>
	</g>
	<g class="st1">
		<path class="st3" d="M110.2,84.6c0,1.4-0.5,2.5-1.5,3.2c-1,0.7-2.4,1.1-4.2,1.1h-5.5V73.6h5.7c1.6,0,2.8,0.3,3.6,1
			c0.9,0.7,1.3,1.7,1.3,3c0,1.6-0.6,2.7-1.8,3.3C109.5,81.6,110.2,82.8,110.2,84.6z M101.5,75.8V80h3.1c0.9,0,1.6-0.2,2-0.5
			c0.4-0.3,0.6-0.9,0.6-1.7c0-0.8-0.2-1.3-0.6-1.6c-0.4-0.3-1.1-0.4-2-0.4H101.5z M107,86.2c0.5-0.3,0.7-0.9,0.7-1.8
			c0-0.9-0.2-1.4-0.7-1.8c-0.5-0.3-1.3-0.5-2.4-0.5h-3.1v4.6h3.1C105.7,86.7,106.5,86.6,107,86.2z"/>
		<path class="st3" d="M123.6,85.1h-7l-1.4,3.8h-2.4l5.9-15.3h3l5.9,15.3H125L123.6,85.1z M122.8,83.1l-2.7-7.3l-2.8,7.3H122.8z"/>
		<path class="st3" d="M132.7,88.9c-0.9-0.2-1.8-0.5-2.6-0.9v-2.4c1.9,1,3.6,1.5,5.1,1.5c0.9,0,1.6-0.2,2.1-0.6
			c0.5-0.4,0.8-0.9,0.8-1.6c0-0.5-0.1-0.9-0.4-1.2c-0.3-0.3-0.6-0.6-1.1-0.8c-0.4-0.2-1-0.4-1.8-0.7c-1-0.3-1.7-0.7-2.3-1
			c-0.6-0.3-1.1-0.7-1.5-1.3c-0.4-0.6-0.6-1.3-0.6-2.2c0-1.3,0.5-2.4,1.4-3.2c0.9-0.8,2.2-1.2,3.8-1.2c0.8,0,1.5,0.1,2.2,0.3
			c0.7,0.2,1.4,0.4,2,0.7v2.4c-1.5-0.8-2.9-1.2-4.3-1.2c-0.9,0-1.6,0.2-2.1,0.5c-0.5,0.3-0.8,0.8-0.8,1.4c0,0.4,0.1,0.8,0.4,1.1
			c0.3,0.3,0.6,0.5,1,0.7c0.4,0.2,1,0.4,1.7,0.6c1,0.4,1.8,0.7,2.4,1c0.6,0.3,1.1,0.8,1.6,1.4s0.7,1.4,0.7,2.3
			c0,1.4-0.5,2.5-1.4,3.4c-0.9,0.8-2.2,1.2-3.8,1.2C134.5,89.2,133.7,89.1,132.7,88.9z"/>
		<path class="st3" d="M147.3,75.8v4.4h6.7v2h-6.7v4.5h7.2v2.2h-9.5V73.6h9.5v2.2H147.3z"/>
	</g>
	<polygon class="st4" points="13.8,90.2 9.5,82.8 13.8,75.4 22.4,75.4 26.6,82.8 22.4,90.2 	"/>
	<polygon class="st4" points="13.4,90 6.7,80.1 12,71 23.9,71.8 30.5,81.7 25.3,90.8 	"/>
	<circle class="st3" cx="18.2" cy="82.6" r="2.6"/>
</g>
</svg>
