<?xml version="1.0" encoding="utf-8"?>
<!-- Generator: Adobe Illustrator 19.2.1, SVG Export Plug-In . SVG Version: 6.00 Build 0)  -->
<svg version="1.1" id="Layer_1" xmlns="http://www.w3.org/2000/svg" xmlns:xlink="http://www.w3.org/1999/xlink" x="0px" y="0px"
	 viewBox="0 0 160 20.5" style="enable-background:new 0 0 160 20.5;" xml:space="preserve">
<style type="text/css">
	.st0{fill:none;}
	.st1{enable-background:new    ;}
	.st2{fill:#FFFFFF;}
	.st3{fill:#1D9E98;}
	.st4{fill:none;stroke:#FFFFFF;stroke-miterlimit:10;}
</style>
<g>
	<rect x="35" y="2" class="st0" width="143.4" height="50"/>
	<g class="st1">
		<path class="st2" d="M40.9,5.6h-4.5V3.3h11.4v2.3h-4.5v13h-2.4V5.6z"/>
		<path class="st2" d="M54,5.5v4.4h6.7v2H54v4.5h7.2v2.2h-9.5V3.3h9.5v2.2H54z"/>
		<path class="st2" d="M68.6,17.9c-1.1-0.7-2-1.6-2.5-2.8c-0.6-1.2-0.9-2.6-0.9-4.2c0-1.6,0.3-3,0.9-4.2c0.6-1.2,1.4-2.1,2.6-2.8
			s2.5-1,4.1-1c0.8,0,1.5,0.1,2.2,0.3c0.7,0.2,1.4,0.4,2,0.8v2.4h-0.1c-0.5-0.4-1.1-0.7-1.8-0.9s-1.4-0.4-2.1-0.4
			c-1.7,0-2.9,0.5-3.8,1.5s-1.3,2.4-1.3,4.3c0,1.8,0.4,3.2,1.3,4.3c0.9,1,2.1,1.5,3.8,1.5c0.7,0,1.5-0.1,2.2-0.4
			c0.7-0.2,1.3-0.6,1.9-1h0.1v2.4c-1.2,0.7-2.6,1.1-4.3,1.1C71,18.9,69.7,18.6,68.6,17.9z"/>
		<path class="st2" d="M94.1,3.3v15.3h-2.4v-6.9h-7.8v6.9h-2.4V3.3h2.4v6.2h7.8V3.3H94.1z"/>
	</g>
	<g class="st1">
		<path class="st3" d="M110.2,14.4c0,1.4-0.5,2.5-1.5,3.2c-1,0.7-2.4,1.1-4.2,1.1h-5.5V3.3h5.7c1.6,0,2.8,0.3,3.6,1
			c0.9,0.7,1.3,1.7,1.3,3c0,1.6-0.6,2.7-1.8,3.3C109.5,11.4,110.2,12.6,110.2,14.4z M101.5,5.5v4.2h3.1c0.9,0,1.6-0.2,2-0.5
			c0.4-0.3,0.6-0.9,0.6-1.7c0-0.8-0.2-1.3-0.6-1.6c-0.4-0.3-1.1-0.4-2-0.4H101.5z M107,16c0.5-0.3,0.7-0.9,0.7-1.8
			c0-0.9-0.2-1.4-0.7-1.8c-0.5-0.3-1.3-0.5-2.4-0.5h-3.1v4.6h3.1C105.7,16.5,106.5,16.3,107,16z"/>
		<path class="st3" d="M123.6,14.9h-7l-1.4,3.8h-2.4l5.9-15.3h3l5.9,15.3H125L123.6,14.9z M122.8,12.8l-2.7-7.3l-2.8,7.3H122.8z"/>
		<path class="st3" d="M132.7,18.6c-0.9-0.2-1.8-0.5-2.6-0.9v-2.4c1.9,1,3.6,1.5,5.1,1.5c0.9,0,1.6-0.2,2.1-0.6
			c0.5-0.4,0.8-0.9,0.8-1.6c0-0.5-0.1-0.9-0.4-1.2c-0.3-0.3-0.6-0.6-1.1-0.8c-0.4-0.2-1-0.4-1.8-0.7c-1-0.3-1.7-0.7-2.3-1
			c-0.6-0.3-1.1-0.7-1.5-1.3c-0.4-0.6-0.6-1.3-0.6-2.2c0-1.3,0.5-2.4,1.4-3.2c0.9-0.8,2.2-1.2,3.8-1.2c0.8,0,1.5,0.1,2.2,0.3
			c0.7,0.2,1.4,0.4,2,0.7v2.4c-1.5-0.8-2.9-1.2-4.3-1.2c-0.9,0-1.6,0.2-2.1,0.5c-0.5,0.3-0.8,0.8-0.8,1.4c0,0.4,0.1,0.8,0.4,1.1
			c0.3,0.3,0.6,0.5,1,0.7c0.4,0.2,1,0.4,1.7,0.6c1,0.4,1.8,0.7,2.4,1c0.6,0.3,1.1,0.8,1.6,1.4s0.7,1.4,0.7,2.3
			c0,1.4-0.5,2.5-1.4,3.4c-0.9,0.8-2.2,1.2-3.8,1.2C134.5,18.9,133.7,18.8,132.7,18.6z"/>
		<path class="st3" d="M147.3,5.5v4.4h6.7v2h-6.7v4.5h7.2v2.2h-9.5V3.3h9.5v2.2H147.3z"/>
	</g>
	<polygon class="st4" points="13.8,19.9 9.5,12.5 13.8,5.1 22.4,5.1 26.6,12.5 22.4,19.9 	"/>
	<polygon class="st4" points="13.4,19.7 6.7,9.8 12,0.7 23.9,1.5 30.5,11.4 25.3,20.5 	"/>
	<circle class="st3" cx="18.2" cy="12.3" r="2.6"/>
</g>
</svg>
