<?xml version="1.0" encoding="iso-8859-1"?>
<!-- Generator: Adobe Illustrator 19.0.0, SVG Export Plug-In . SVG Version: 6.00 Build 0)  -->
<svg version="1.1" id="Layer_1" xmlns="http://www.w3.org/2000/svg" xmlns:xlink="http://www.w3.org/1999/xlink" x="0px" y="0px"
	 viewBox="0 0 512 512" style="enable-background:new 0 0 512 512;" xml:space="preserve">
<g>
	<g>
		<path d="M489.739,199.652c0-6.147-4.283-10.435-10.435-10.435h-44.522c-6.152,0-11.13,4.984-11.13,11.13s4.978,11.13,11.13,11.13
			h33.098c-5.804,111.304-98.315,200.348-211.185,200.348S51.315,322.783,45.511,211.478h33.098c6.152,0,11.13-4.984,11.13-11.13
			s-4.978-11.13-11.13-11.13H34.087c-6.152,0-11.826,4.288-11.826,10.435c0,125.129,99.478,226.612,221.913,232.48v57.607h-44.522
			V512h111.304v-22.261h-44.522v-57.607C391.652,426.264,489.739,324.781,489.739,199.652z"/>
	</g>
</g>
<g>
	<g>
		<path d="M334.587,0H178.804c-36.837,0-68.196,28.587-68.196,65.429v178.049c0,6.147,4.978,11.13,11.13,11.13
			c6.152,0,11.13-4.984,11.13-11.13V65.429c0-24.571,21.37-43.169,45.935-43.169h155.783c24.565,0,43.152,18.598,43.152,43.169
			v178.049c0,6.147,4.978,11.13,11.13,11.13s11.13-4.984,11.13-11.13V65.429C400,28.587,371.424,0,334.587,0z"/>
	</g>
</g>
<g>
</g>
<g>
</g>
<g>
</g>
<g>
</g>
<g>
</g>
<g>
</g>
<g>
</g>
<g>
</g>
<g>
</g>
<g>
</g>
<g>
</g>
<g>
</g>
<g>
</g>
<g>
</g>
<g>
</g>
</svg>
