<?xml version="1.0" encoding="iso-8859-1"?>
<!-- Generator: Adobe Illustrator 18.0.0, SVG Export Plug-In . SVG Version: 6.00 Build 0)  -->
<!DOCTYPE svg PUBLIC "-//W3C//DTD SVG 1.1//EN" "http://www.w3.org/Graphics/SVG/1.1/DTD/svg11.dtd">
<svg version="1.1" id="Capa_1" xmlns="http://www.w3.org/2000/svg" xmlns:xlink="http://www.w3.org/1999/xlink" x="0px" y="0px"
	 viewBox="0 0 481.219 481.219" style="enable-background:new 0 0 481.219 481.219;" xml:space="preserve">
<g>
	<path d="M366.071,168.664L241.955,97.007c-1.702-0.982-3.798-0.982-5.5,0l-124.126,71.651c-1.702,0.982-2.75,2.798-2.75,4.764
		l0.012,146.243c0,1.964,1.048,3.779,2.749,4.762l124.106,71.71c0.851,0.492,1.801,0.738,2.751,0.738
		c0.949,0,1.899-0.246,2.75-0.737l124.124-71.655c1.702-0.982,2.75-2.798,2.75-4.763V173.427
		C368.821,171.462,367.773,169.646,366.071,168.664z M239.205,108.121l113.116,65.306l-113.116,65.309l-113.127-65.313
		L239.205,108.121z M120.58,182.95l113.125,65.313l-0.01,133.58L120.591,316.49L120.58,182.95z M357.821,316.543l-113.126,65.307
		l0.01-133.587l113.116-65.309V316.543z"/>
	<path d="M377.027,81h35c22.332,0,40.5-18.168,40.5-40.5S434.359,0,412.027,0s-40.5,18.168-40.5,40.5v35
		C371.527,78.538,373.989,81,377.027,81z M382.527,40.5c0-16.266,13.234-29.5,29.5-29.5s29.5,13.234,29.5,29.5
		S428.293,70,412.027,70h-29.5V40.5z"/>
	<path d="M434.527,40.5c0-12.407-10.093-22.5-22.5-22.5s-22.5,10.093-22.5,22.5S399.62,63,412.027,63S434.527,52.907,434.527,40.5z
		 M400.527,40.5c0-6.341,5.159-11.5,11.5-11.5s11.5,5.159,11.5,11.5s-5.159,11.5-11.5,11.5S400.527,46.841,400.527,40.5z"/>
	<path d="M441.472,121.956l-28.579,16.501c-35.919-58.292-100.337-97.238-173.688-97.238c-73.351,0-137.769,38.945-173.688,97.236
		l-28.575-16.5c-2.63-1.519-5.994-0.618-7.513,2.013c-1.519,2.63-0.618,5.994,2.013,7.513l28.55,16.485
		c-15.719,28.89-24.656,61.981-24.656,97.12c0,110.57,88.482,200.861,198.358,203.792v26.84c0,3.038,2.462,5.5,5.5,5.5
		s5.5-2.462,5.5-5.5V448.88c109.885-2.92,198.378-93.215,198.378-203.792c0-35.139-8.936-68.229-24.655-97.119l28.554-16.486
		c2.631-1.519,3.532-4.883,2.013-7.513S444.105,120.436,441.472,121.956z M239.205,437.956
		c-106.348,0-192.869-86.521-192.869-192.868c0-106.348,86.521-192.869,192.869-192.869c106.348,0,192.868,86.521,192.868,192.869
		C432.073,351.435,345.553,437.956,239.205,437.956z"/>
</g>
<g>
</g>
<g>
</g>
<g>
</g>
<g>
</g>
<g>
</g>
<g>
</g>
<g>
</g>
<g>
</g>
<g>
</g>
<g>
</g>
<g>
</g>
<g>
</g>
<g>
</g>
<g>
</g>
<g>
</g>
</svg>
